<?xml version="1.0" encoding="UTF-8" standalone="no"?>
<!DOCTYPE svg PUBLIC "-//W3C//DTD SVG 1.1//EN"
 "http://www.w3.org/Graphics/SVG/1.1/DTD/svg11.dtd">
<!-- Generated by graphviz version 12.2.1 (0)
 -->
<!-- Pages: 1 -->
<svg width="1124pt" height="1074pt"
 viewBox="0.00 0.00 1123.54 1073.52" xmlns="http://www.w3.org/2000/svg" xmlns:xlink="http://www.w3.org/1999/xlink">
<g id="graph0" class="graph" transform="scale(1 1) rotate(0) translate(28.8 1044.72)">
<polygon fill="white" stroke="none" points="-28.8,28.8 -28.8,-1044.72 1094.74,-1044.72 1094.74,28.8 -28.8,28.8"/>
<text text-anchor="middle" x="532.97" y="-977.72" font-family="Helvetica,sans-Serif" font-size="36.00">portredirect</text>
<!-- portredirect -->
<g id="node1" class="node">
<title>portredirect</title>
<polygon fill="#5397c8" stroke="black" points="495.61,-464.11 495.61,-502.61 583.61,-502.61 583.61,-464.11 495.61,-464.11"/>
<text text-anchor="middle" x="539.61" y="-489.11" font-family="monospace" font-size="10.00">crate</text>
<polyline fill="none" stroke="black" points="495.61,-483.36 583.61,-483.36"/>
<text text-anchor="middle" x="539.61" y="-469.86" font-family="monospace" font-size="10.00">portredirect</text>
</g>
<!-- portredirect::app_data -->
<g id="node2" class="node">
<title>portredirect::app_data</title>
<polygon fill="#81c169" stroke="black" points="619.56,-574.56 619.56,-613.06 683.56,-613.06 683.56,-574.56 619.56,-574.56"/>
<text text-anchor="middle" x="651.56" y="-599.56" font-family="monospace" font-size="10.00">pub mod</text>
<polyline fill="none" stroke="black" points="619.56,-593.81 683.56,-593.81"/>
<text text-anchor="middle" x="651.56" y="-580.31" font-family="monospace" font-size="10.00">app_data</text>
</g>
<!-- portredirect&#45;&gt;portredirect::app_data -->
<g id="edge1" class="edge">
<title>portredirect&#45;&gt;portredirect::app_data</title>
<path fill="none" stroke="#000000" d="M559.63,-503.11C577.46,-520.7 603.73,-546.62 623.63,-566.25"/>
<polygon fill="#000000" stroke="#000000" points="621.07,-568.64 630.64,-573.17 625.98,-563.66 621.07,-568.64"/>
<text text-anchor="middle" x="579.63" y="-536.43" font-family="monospace" font-size="10.00">owns</text>
</g>
<!-- portredirect::bi_stream -->
<g id="node3" class="node">
<title>portredirect::bi_stream</title>
<polygon fill="#81c169" stroke="black" points="430.18,-322.45 430.18,-360.95 500.18,-360.95 500.18,-322.45 430.18,-322.45"/>
<text text-anchor="middle" x="465.18" y="-347.45" font-family="monospace" font-size="10.00">pub mod</text>
<polyline fill="none" stroke="black" points="430.18,-341.7 500.18,-341.7"/>
<text text-anchor="middle" x="465.18" y="-328.2" font-family="monospace" font-size="10.00">bi_stream</text>
</g>
<!-- portredirect&#45;&gt;portredirect::bi_stream -->
<g id="edge2" class="edge">
<title>portredirect&#45;&gt;portredirect::bi_stream</title>
<path fill="none" stroke="#000000" d="M529.26,-463.67C516.66,-439.67 495.23,-398.9 480.66,-371.16"/>
<polygon fill="#000000" stroke="#000000" points="483.9,-369.79 476.15,-362.57 477.7,-373.05 483.9,-369.79"/>
<text text-anchor="middle" x="492.96" y="-419.16" font-family="monospace" font-size="10.00">owns</text>
</g>
<!-- portredirect::client -->
<g id="node4" class="node">
<title>portredirect::client</title>
<polygon fill="#81c169" stroke="black" points="488.09,-724.68 488.09,-763.18 546.09,-763.18 546.09,-724.68 488.09,-724.68"/>
<text text-anchor="middle" x="517.09" y="-749.68" font-family="monospace" font-size="10.00">pub mod</text>
<polyline fill="none" stroke="black" points="488.09,-743.93 546.09,-743.93"/>
<text text-anchor="middle" x="517.09" y="-730.43" font-family="monospace" font-size="10.00">client</text>
</g>
<!-- portredirect&#45;&gt;portredirect::client -->
<g id="edge3" class="edge">
<title>portredirect&#45;&gt;portredirect::client</title>
<path fill="none" stroke="#000000" d="M537.92,-502.95C534.03,-547.95 524.43,-659.02 519.75,-713.21"/>
<polygon fill="#000000" stroke="#000000" points="516.28,-712.7 518.91,-722.96 523.25,-713.3 516.28,-712.7"/>
<text text-anchor="middle" x="516.84" y="-609.83" font-family="monospace" font-size="10.00">owns</text>
</g>
<!-- portredirect::forward -->
<g id="node9" class="node">
<title>portredirect::forward</title>
<polygon fill="#81c169" stroke="black" points="382.73,-557.09 382.73,-595.59 440.73,-595.59 440.73,-557.09 382.73,-557.09"/>
<text text-anchor="middle" x="411.73" y="-582.09" font-family="monospace" font-size="10.00">pub mod</text>
<polyline fill="none" stroke="black" points="382.73,-576.34 440.73,-576.34"/>
<text text-anchor="middle" x="411.73" y="-562.84" font-family="monospace" font-size="10.00">forward</text>
</g>
<!-- portredirect&#45;&gt;portredirect::forward -->
<g id="edge4" class="edge">
<title>portredirect&#45;&gt;portredirect::forward</title>
<path fill="none" stroke="#000000" d="M512.49,-503.08C493.67,-516.77 468.4,-535.14 447.87,-550.07"/>
<polygon fill="#000000" stroke="#000000" points="446.07,-547.05 440.04,-555.76 450.18,-552.71 446.07,-547.05"/>
<text text-anchor="middle" x="468.18" y="-528.32" font-family="monospace" font-size="10.00">owns</text>
</g>
<!-- portredirect::metrics_helper -->
<g id="node10" class="node">
<title>portredirect::metrics_helper</title>
<polygon fill="#81c169" stroke="black" points="606.96,-357.8 606.96,-396.3 706.96,-396.3 706.96,-357.8 606.96,-357.8"/>
<text text-anchor="middle" x="656.96" y="-382.8" font-family="monospace" font-size="10.00">pub mod</text>
<polyline fill="none" stroke="black" points="606.96,-377.05 706.96,-377.05"/>
<text text-anchor="middle" x="656.96" y="-363.55" font-family="monospace" font-size="10.00">metrics_helper</text>
</g>
<!-- portredirect&#45;&gt;portredirect::metrics_helper -->
<g id="edge5" class="edge">
<title>portredirect&#45;&gt;portredirect::metrics_helper</title>
<path fill="none" stroke="#000000" d="M561.41,-463.62C579.85,-446.91 606.47,-422.79 626.93,-404.26"/>
<polygon fill="#000000" stroke="#000000" points="629.1,-407.02 634.16,-397.71 624.4,-401.83 629.1,-407.02"/>
<text text-anchor="middle" x="582.17" y="-435.69" font-family="monospace" font-size="10.00">owns</text>
</g>
<!-- portredirect::protocol -->
<g id="node11" class="node">
<title>portredirect::protocol</title>
<polygon fill="#81c169" stroke="black" points="768.33,-468.4 768.33,-506.9 832.33,-506.9 832.33,-468.4 768.33,-468.4"/>
<text text-anchor="middle" x="800.33" y="-493.4" font-family="monospace" font-size="10.00">pub mod</text>
<polyline fill="none" stroke="black" points="768.33,-487.65 832.33,-487.65"/>
<text text-anchor="middle" x="800.33" y="-474.15" font-family="monospace" font-size="10.00">protocol</text>
</g>
<!-- portredirect&#45;&gt;portredirect::protocol -->
<g id="edge6" class="edge">
<title>portredirect&#45;&gt;portredirect::protocol</title>
<path fill="none" stroke="#000000" d="M583.84,-484.09C632.02,-484.88 708.62,-486.14 756.6,-486.93"/>
<polygon fill="#000000" stroke="#000000" points="756.29,-490.43 766.34,-487.09 756.4,-483.43 756.29,-490.43"/>
<text text-anchor="middle" x="658.22" y="-487.26" font-family="monospace" font-size="10.00">owns</text>
</g>
<!-- portredirect::quic -->
<g id="node15" class="node">
<title>portredirect::quic</title>
<polygon fill="#81c169" stroke="black" points="569.62,-213.56 569.62,-252.06 627.62,-252.06 627.62,-213.56 569.62,-213.56"/>
<text text-anchor="middle" x="598.62" y="-238.56" font-family="monospace" font-size="10.00">pub mod</text>
<polyline fill="none" stroke="black" points="569.62,-232.81 627.62,-232.81"/>
<text text-anchor="middle" x="598.62" y="-219.31" font-family="monospace" font-size="10.00">quic</text>
</g>
<!-- portredirect&#45;&gt;portredirect::quic -->
<g id="edge7" class="edge">
<title>portredirect&#45;&gt;portredirect::quic</title>
<path fill="none" stroke="#000000" d="M544.24,-463.7C554.48,-420.25 579.08,-315.77 591.37,-263.57"/>
<polygon fill="#000000" stroke="#000000" points="594.78,-264.39 593.66,-253.85 587.96,-262.78 594.78,-264.39"/>
<text text-anchor="middle" x="555.81" y="-365.39" font-family="monospace" font-size="10.00">owns</text>
</g>
<!-- portredirect::server -->
<g id="node18" class="node">
<title>portredirect::server</title>
<polygon fill="#81c169" stroke="black" points="259.77,-389.23 259.77,-427.73 317.77,-427.73 317.77,-389.23 259.77,-389.23"/>
<text text-anchor="middle" x="288.77" y="-414.23" font-family="monospace" font-size="10.00">pub mod</text>
<polyline fill="none" stroke="black" points="259.77,-408.48 317.77,-408.48"/>
<text text-anchor="middle" x="288.77" y="-394.98" font-family="monospace" font-size="10.00">server</text>
</g>
<!-- portredirect&#45;&gt;portredirect::server -->
<g id="edge8" class="edge">
<title>portredirect&#45;&gt;portredirect::server</title>
<path fill="none" stroke="#000000" d="M495.35,-470.15C448.28,-456.1 374.49,-434.07 329.02,-420.5"/>
<polygon fill="#000000" stroke="#000000" points="330.14,-417.18 319.55,-417.67 328.13,-423.88 330.14,-417.18"/>
<text text-anchor="middle" x="400.18" y="-447.07" font-family="monospace" font-size="10.00">owns</text>
</g>
<!-- portredirect::client::auth -->
<g id="node5" class="node">
<title>portredirect::client::auth</title>
<polygon fill="#81c169" stroke="black" points="533.72,-932.17 533.72,-970.67 621.72,-970.67 621.72,-932.17 533.72,-932.17"/>
<text text-anchor="middle" x="577.72" y="-957.17" font-family="monospace" font-size="10.00">pub mod</text>
<polyline fill="none" stroke="black" points="533.72,-951.42 621.72,-951.42"/>
<text text-anchor="middle" x="577.72" y="-937.92" font-family="monospace" font-size="10.00">client::auth</text>
</g>
<!-- portredirect::client&#45;&gt;portredirect::client::auth -->
<g id="edge9" class="edge">
<title>portredirect::client&#45;&gt;portredirect::client::auth</title>
<path fill="none" stroke="#000000" d="M522.8,-763.45C533.38,-799.67 556.13,-877.54 568.78,-920.82"/>
<polygon fill="#000000" stroke="#000000" points="565.4,-921.73 571.56,-930.34 572.12,-919.76 565.4,-921.73"/>
<text text-anchor="middle" x="533.79" y="-843.89" font-family="monospace" font-size="10.00">owns</text>
</g>
<!-- portredirect::client::metrics -->
<g id="node6" class="node">
<title>portredirect::client::metrics</title>
<polygon fill="#81c169" stroke="black" points="370.29,-919.58 370.29,-958.08 476.29,-958.08 476.29,-919.58 370.29,-919.58"/>
<text text-anchor="middle" x="423.29" y="-944.58" font-family="monospace" font-size="10.00">pub mod</text>
<polyline fill="none" stroke="black" points="370.29,-938.83 476.29,-938.83"/>
<text text-anchor="middle" x="423.29" y="-925.33" font-family="monospace" font-size="10.00">client::metrics</text>
</g>
<!-- portredirect::client&#45;&gt;portredirect::client::metrics -->
<g id="edge10" class="edge">
<title>portredirect::client&#45;&gt;portredirect::client::metrics</title>
<path fill="none" stroke="#000000" d="M507.76,-763.33C491.33,-797.46 457.16,-868.46 437.69,-908.92"/>
<polygon fill="#000000" stroke="#000000" points="434.57,-907.33 433.39,-917.86 440.88,-910.36 434.57,-907.33"/>
<text text-anchor="middle" x="460.72" y="-837.87" font-family="monospace" font-size="10.00">owns</text>
</g>
<!-- portredirect::client::server_handler -->
<g id="node7" class="node">
<title>portredirect::client::server_handler</title>
<polygon fill="#81c169" stroke="black" points="239.11,-826.84 239.11,-865.34 387.11,-865.34 387.11,-826.84 239.11,-826.84"/>
<text text-anchor="middle" x="313.11" y="-851.84" font-family="monospace" font-size="10.00">pub mod</text>
<polyline fill="none" stroke="black" points="239.11,-846.09 387.11,-846.09"/>
<text text-anchor="middle" x="313.11" y="-832.59" font-family="monospace" font-size="10.00">client::server_handler</text>
</g>
<!-- portredirect::client&#45;&gt;portredirect::client::server_handler -->
<g id="edge11" class="edge">
<title>portredirect::client&#45;&gt;portredirect::client::server_handler</title>
<path fill="none" stroke="#000000" d="M487.87,-758.57C455.2,-774.93 401.76,-801.69 362.57,-821.32"/>
<polygon fill="#000000" stroke="#000000" points="361.15,-818.12 353.78,-825.73 364.28,-824.38 361.15,-818.12"/>
<text text-anchor="middle" x="413.22" y="-791.7" font-family="monospace" font-size="10.00">owns</text>
</g>
<!-- portredirect::client::tcp_forwarder -->
<g id="node8" class="node">
<title>portredirect::client::tcp_forwarder</title>
<polygon fill="#81c169" stroke="black" points="630.84,-858.04 630.84,-896.54 772.84,-896.54 772.84,-858.04 630.84,-858.04"/>
<text text-anchor="middle" x="701.84" y="-883.04" font-family="monospace" font-size="10.00">pub mod</text>
<polyline fill="none" stroke="black" points="630.84,-877.29 772.84,-877.29"/>
<text text-anchor="middle" x="701.84" y="-863.79" font-family="monospace" font-size="10.00">client::tcp_forwarder</text>
</g>
<!-- portredirect::client&#45;&gt;portredirect::client::tcp_forwarder -->
<g id="edge12" class="edge">
<title>portredirect::client&#45;&gt;portredirect::client::tcp_forwarder</title>
<path fill="none" stroke="#000000" d="M544.35,-763.61C576.51,-786.82 630.08,-825.49 665.68,-851.19"/>
<polygon fill="#000000" stroke="#000000" points="663.38,-853.85 673.54,-856.86 667.48,-848.17 663.38,-853.85"/>
<text text-anchor="middle" x="593.02" y="-809.15" font-family="monospace" font-size="10.00">owns</text>
</g>
<!-- portredirect::protocol::auth -->
<g id="node12" class="node">
<title>portredirect::protocol::auth</title>
<polygon fill="#81c169" stroke="black" points="902.2,-634.32 902.2,-672.82 1002.2,-672.82 1002.2,-634.32 902.2,-634.32"/>
<text text-anchor="middle" x="952.2" y="-659.32" font-family="monospace" font-size="10.00">pub mod</text>
<polyline fill="none" stroke="black" points="902.2,-653.57 1002.2,-653.57"/>
<text text-anchor="middle" x="952.2" y="-640.07" font-family="monospace" font-size="10.00">protocol::auth</text>
</g>
<!-- portredirect::protocol&#45;&gt;portredirect::protocol::auth -->
<g id="edge13" class="edge">
<title>portredirect::protocol&#45;&gt;portredirect::protocol::auth</title>
<path fill="none" stroke="#000000" d="M818.34,-507.34C845.17,-536.65 895.76,-591.91 926.48,-625.47"/>
<polygon fill="#000000" stroke="#000000" points="923.85,-627.78 933.18,-632.79 929.01,-623.05 923.85,-627.78"/>
<text text-anchor="middle" x="860.41" y="-568.15" font-family="monospace" font-size="10.00">owns</text>
</g>
<!-- portredirect::protocol::keepalive -->
<g id="node13" class="node">
<title>portredirect::protocol::keepalive</title>
<polygon fill="#81c169" stroke="black" points="892.73,-305.95 892.73,-344.45 1022.73,-344.45 1022.73,-305.95 892.73,-305.95"/>
<text text-anchor="middle" x="957.73" y="-330.95" font-family="monospace" font-size="10.00">pub mod</text>
<polyline fill="none" stroke="black" points="892.73,-325.2 1022.73,-325.2"/>
<text text-anchor="middle" x="957.73" y="-311.7" font-family="monospace" font-size="10.00">protocol::keepalive</text>
</g>
<!-- portredirect::protocol&#45;&gt;portredirect::protocol::keepalive -->
<g id="edge14" class="edge">
<title>portredirect::protocol&#45;&gt;portredirect::protocol::keepalive</title>
<path fill="none" stroke="#000000" d="M819.31,-468.06C847.08,-439.39 898.92,-385.89 930.67,-353.12"/>
<polygon fill="#000000" stroke="#000000" points="933.18,-355.57 937.62,-345.95 928.15,-350.7 933.18,-355.57"/>
<text text-anchor="middle" x="862.99" y="-412.34" font-family="monospace" font-size="10.00">owns</text>
</g>
<!-- portredirect::protocol::utils -->
<g id="node14" class="node">
<title>portredirect::protocol::utils</title>
<polygon fill="#81c169" stroke="black" points="959.94,-472.4 959.94,-510.9 1065.94,-510.9 1065.94,-472.4 959.94,-472.4"/>
<text text-anchor="middle" x="1012.94" y="-497.4" font-family="monospace" font-size="10.00">pub mod</text>
<polyline fill="none" stroke="black" points="959.94,-491.65 1065.94,-491.65"/>
<text text-anchor="middle" x="1012.94" y="-478.15" font-family="monospace" font-size="10.00">protocol::utils</text>
</g>
<!-- portredirect::protocol&#45;&gt;portredirect::protocol::utils -->
<g id="edge15" class="edge">
<title>portredirect::protocol&#45;&gt;portredirect::protocol::utils</title>
<path fill="none" stroke="#000000" d="M832.62,-488.26C863.28,-488.84 910.25,-489.72 948.57,-490.44"/>
<polygon fill="#000000" stroke="#000000" points="948.06,-493.93 958.12,-490.62 948.19,-486.94 948.06,-493.93"/>
<text text-anchor="middle" x="878.59" y="-491.1" font-family="monospace" font-size="10.00">owns</text>
</g>
<!-- portredirect::quic::client -->
<g id="node16" class="node">
<title>portredirect::quic::client</title>
<polygon fill="#81c169" stroke="black" points="501.83,-0.5 501.83,-39 589.83,-39 589.83,-0.5 501.83,-0.5"/>
<text text-anchor="middle" x="545.83" y="-25.5" font-family="monospace" font-size="10.00">pub mod</text>
<polyline fill="none" stroke="black" points="501.83,-19.75 589.83,-19.75"/>
<text text-anchor="middle" x="545.83" y="-6.25" font-family="monospace" font-size="10.00">quic::client</text>
</g>
<!-- portredirect::quic&#45;&gt;portredirect::quic::client -->
<g id="edge16" class="edge">
<title>portredirect::quic&#45;&gt;portredirect::quic::client</title>
<path fill="none" stroke="#000000" d="M593.75,-213.14C584.52,-175.89 564.41,-94.76 553.41,-50.34"/>
<polygon fill="#000000" stroke="#000000" points="556.85,-49.7 551.05,-40.83 550.06,-51.38 556.85,-49.7"/>
<text text-anchor="middle" x="561.58" y="-133.49" font-family="monospace" font-size="10.00">owns</text>
</g>
<!-- portredirect::quic::server -->
<g id="node17" class="node">
<title>portredirect::quic::server</title>
<polygon fill="#81c169" stroke="black" points="706.13,-53.09 706.13,-91.59 794.13,-91.59 794.13,-53.09 706.13,-53.09"/>
<text text-anchor="middle" x="750.13" y="-78.09" font-family="monospace" font-size="10.00">pub mod</text>
<polyline fill="none" stroke="black" points="706.13,-72.34 794.13,-72.34"/>
<text text-anchor="middle" x="750.13" y="-58.84" font-family="monospace" font-size="10.00">quic::server</text>
</g>
<!-- portredirect::quic&#45;&gt;portredirect::quic::server -->
<g id="edge17" class="edge">
<title>portredirect::quic&#45;&gt;portredirect::quic::server</title>
<path fill="none" stroke="#000000" d="M617.2,-213.13C644.04,-184.7 693.77,-132.03 724.21,-99.8"/>
<polygon fill="#000000" stroke="#000000" points="726.52,-102.45 730.84,-92.77 721.43,-97.64 726.52,-102.45"/>
<text text-anchor="middle" x="658.7" y="-158.21" font-family="monospace" font-size="10.00">owns</text>
</g>
<!-- portredirect::server::auth -->
<g id="node19" class="node">
<title>portredirect::server::auth</title>
<polygon fill="#81c169" stroke="black" points="76.55,-254.24 76.55,-292.74 164.55,-292.74 164.55,-254.24 76.55,-254.24"/>
<text text-anchor="middle" x="120.55" y="-279.24" font-family="monospace" font-size="10.00">pub mod</text>
<polyline fill="none" stroke="black" points="76.55,-273.49 164.55,-273.49"/>
<text text-anchor="middle" x="120.55" y="-259.99" font-family="monospace" font-size="10.00">server::auth</text>
</g>
<!-- portredirect::server&#45;&gt;portredirect::server::auth -->
<g id="edge18" class="edge">
<title>portredirect::server&#45;&gt;portredirect::server::auth</title>
<path fill="none" stroke="#000000" d="M264.31,-388.85C235.16,-365.46 186.31,-326.26 153.76,-300.14"/>
<polygon fill="#000000" stroke="#000000" points="156.21,-297.62 146.22,-294.09 151.83,-303.08 156.21,-297.62"/>
<text text-anchor="middle" x="197.04" y="-346.25" font-family="monospace" font-size="10.00">owns</text>
</g>
<!-- portredirect::server::client_handler -->
<g id="node20" class="node">
<title>portredirect::server::client_handler</title>
<polygon fill="#81c169" stroke="black" points="0,-404.12 0,-442.62 148,-442.62 148,-404.12 0,-404.12"/>
<text text-anchor="middle" x="74" y="-429.12" font-family="monospace" font-size="10.00">pub mod</text>
<polyline fill="none" stroke="black" points="0,-423.37 148,-423.37"/>
<text text-anchor="middle" x="74" y="-409.87" font-family="monospace" font-size="10.00">server::client_handler</text>
</g>
<!-- portredirect::server&#45;&gt;portredirect::server::client_handler -->
<g id="edge19" class="edge">
<title>portredirect::server&#45;&gt;portredirect::server::client_handler</title>
<path fill="none" stroke="#000000" d="M259.36,-410.52C233.65,-412.3 195,-414.98 159.64,-417.43"/>
<polygon fill="#000000" stroke="#000000" points="159.54,-413.93 149.81,-418.12 160.03,-420.92 159.54,-413.93"/>
<text text-anchor="middle" x="197.5" y="-415.73" font-family="monospace" font-size="10.00">owns</text>
</g>
<!-- portredirect::server::tcp_forwarder -->
<g id="node21" class="node">
<title>portredirect::server::tcp_forwarder</title>
<polygon fill="#81c169" stroke="black" points="49.02,-541.47 49.02,-579.97 191.02,-579.97 191.02,-541.47 49.02,-541.47"/>
<text text-anchor="middle" x="120.02" y="-566.47" font-family="monospace" font-size="10.00">pub mod</text>
<polyline fill="none" stroke="black" points="49.02,-560.72 191.02,-560.72"/>
<text text-anchor="middle" x="120.02" y="-547.22" font-family="monospace" font-size="10.00">server::tcp_forwarder</text>
</g>
<!-- portredirect::server&#45;&gt;portredirect::server::tcp_forwarder -->
<g id="edge20" class="edge">
<title>portredirect::server&#45;&gt;portredirect::server::tcp_forwarder</title>
<path fill="none" stroke="#000000" d="M267.06,-428.07C237.31,-454.91 183.76,-503.21 150.15,-533.53"/>
<polygon fill="#000000" stroke="#000000" points="147.85,-530.89 142.77,-540.19 152.54,-536.09 147.85,-530.89"/>
<text text-anchor="middle" x="196.6" y="-482.55" font-family="monospace" font-size="10.00">owns</text>
</g>
<!-- portredirect::server::tcp_listener -->
<g id="node22" class="node">
<title>portredirect::server::tcp_listener</title>
<polygon fill="#81c169" stroke="black" points="168.42,-164.48 168.42,-202.98 304.42,-202.98 304.42,-164.48 168.42,-164.48"/>
<text text-anchor="middle" x="236.42" y="-189.48" font-family="monospace" font-size="10.00">pub mod</text>
<polyline fill="none" stroke="black" points="168.42,-183.73 304.42,-183.73"/>
<text text-anchor="middle" x="236.42" y="-170.23" font-family="monospace" font-size="10.00">server::tcp_listener</text>
</g>
<!-- portredirect::server&#45;&gt;portredirect::server::tcp_listener -->
<g id="edge21" class="edge">
<title>portredirect::server&#45;&gt;portredirect::server::tcp_listener</title>
<path fill="none" stroke="#000000" d="M284.22,-388.93C275.09,-349.75 254.5,-261.35 243.56,-214.39"/>
<polygon fill="#000000" stroke="#000000" points="247.02,-213.82 241.34,-204.87 240.2,-215.41 247.02,-213.82"/>
<text text-anchor="middle" x="251.89" y="-303.41" font-family="monospace" font-size="10.00">owns</text>
</g>
</g>
</svg>
