<?xml version="1.0" encoding="UTF-8" standalone="no"?>
<!DOCTYPE svg PUBLIC "-//W3C//DTD SVG 1.1//EN"
 "http://www.w3.org/Graphics/SVG/1.1/DTD/svg11.dtd">
<!-- Generated by graphviz version 12.2.1 (0)
 -->
<!-- Pages: 1 -->
<svg width="1327pt" height="1264pt"
 viewBox="0.00 0.00 1326.67 1264.49" xmlns="http://www.w3.org/2000/svg" xmlns:xlink="http://www.w3.org/1999/xlink">
<g id="graph0" class="graph" transform="scale(1 1) rotate(0) translate(28.8 1235.69)">
<polygon fill="white" stroke="none" points="-28.8,28.8 -28.8,-1235.69 1297.87,-1235.69 1297.87,28.8 -28.8,28.8"/>
<text text-anchor="middle" x="634.53" y="-1168.69" font-family="Helvetica,sans-Serif" font-size="36.00">portredirect_server</text>
<!-- anyhow::Error -->
<g id="node1" class="node">
<title>anyhow::Error</title>
<polygon fill="#81c169" stroke="black" points="7.74,-450.99 7.74,-489.49 113.74,-489.49 113.74,-450.99 7.74,-450.99"/>
<text text-anchor="middle" x="60.74" y="-475.99" font-family="monospace" font-size="10.00">external struct</text>
<polyline fill="none" stroke="black" points="7.74,-470.24 113.74,-470.24"/>
<text text-anchor="middle" x="60.74" y="-456.74" font-family="monospace" font-size="10.00">anyhow::Error</text>
</g>
<!-- anyhow::Result -->
<g id="node2" class="node">
<title>anyhow::Result</title>
<polygon fill="#81c169" stroke="black" points="1133.11,-510.27 1133.11,-548.77 1233.11,-548.77 1233.11,-510.27 1133.11,-510.27"/>
<text text-anchor="middle" x="1183.11" y="-535.27" font-family="monospace" font-size="10.00">external type</text>
<polyline fill="none" stroke="black" points="1133.11,-529.52 1233.11,-529.52"/>
<text text-anchor="middle" x="1183.11" y="-516.02" font-family="monospace" font-size="10.00">anyhow::Result</text>
</g>
<!-- bool -->
<g id="node3" class="node">
<title>bool</title>
<polygon fill="#81c169" stroke="black" points="472.82,-0.5 472.82,-39 584.82,-39 584.82,-0.5 472.82,-0.5"/>
<text text-anchor="middle" x="528.82" y="-25.5" font-family="monospace" font-size="10.00">external builtin</text>
<polyline fill="none" stroke="black" points="472.82,-19.75 584.82,-19.75"/>
<text text-anchor="middle" x="528.82" y="-6.25" font-family="monospace" font-size="10.00">bool</text>
</g>
<!-- i32 -->
<g id="node4" class="node">
<title>i32</title>
<polygon fill="#81c169" stroke="black" points="315.22,-1055.81 315.22,-1094.31 427.22,-1094.31 427.22,-1055.81 315.22,-1055.81"/>
<text text-anchor="middle" x="371.22" y="-1080.81" font-family="monospace" font-size="10.00">external builtin</text>
<polyline fill="none" stroke="black" points="315.22,-1075.06 427.22,-1075.06"/>
<text text-anchor="middle" x="371.22" y="-1061.56" font-family="monospace" font-size="10.00">i32</text>
</g>
<!-- log::Level -->
<g id="node5" class="node">
<title>log::Level</title>
<polygon fill="#81c169" stroke="black" points="973.18,-483.03 973.18,-521.53 1067.18,-521.53 1067.18,-483.03 973.18,-483.03"/>
<text text-anchor="middle" x="1020.18" y="-508.03" font-family="monospace" font-size="10.00">external enum</text>
<polyline fill="none" stroke="black" points="973.18,-502.28 1067.18,-502.28"/>
<text text-anchor="middle" x="1020.18" y="-488.78" font-family="monospace" font-size="10.00">log::Level</text>
</g>
<!-- log::LevelFilter -->
<g id="node6" class="node">
<title>log::LevelFilter</title>
<polygon fill="#81c169" stroke="black" points="62.71,-567.21 62.71,-605.71 174.71,-605.71 174.71,-567.21 62.71,-567.21"/>
<text text-anchor="middle" x="118.71" y="-592.21" font-family="monospace" font-size="10.00">external enum</text>
<polyline fill="none" stroke="black" points="62.71,-586.46 174.71,-586.46"/>
<text text-anchor="middle" x="118.71" y="-572.96" font-family="monospace" font-size="10.00">log::LevelFilter</text>
</g>
<!-- log::Metadata -->
<g id="node7" class="node">
<title>log::Metadata</title>
<polygon fill="#81c169" stroke="black" points="120.86,-208.26 120.86,-246.76 226.86,-246.76 226.86,-208.26 120.86,-208.26"/>
<text text-anchor="middle" x="173.86" y="-233.26" font-family="monospace" font-size="10.00">external struct</text>
<polyline fill="none" stroke="black" points="120.86,-227.51 226.86,-227.51"/>
<text text-anchor="middle" x="173.86" y="-214.01" font-family="monospace" font-size="10.00">log::Metadata</text>
</g>
<!-- log::MetadataBuilder -->
<g id="node8" class="node">
<title>log::MetadataBuilder</title>
<polygon fill="#81c169" stroke="black" points="1005.68,-252.05 1005.68,-290.55 1141.68,-290.55 1141.68,-252.05 1005.68,-252.05"/>
<text text-anchor="middle" x="1073.68" y="-277.05" font-family="monospace" font-size="10.00">external struct</text>
<polyline fill="none" stroke="black" points="1005.68,-271.3 1141.68,-271.3"/>
<text text-anchor="middle" x="1073.68" y="-257.8" font-family="monospace" font-size="10.00">log::MetadataBuilder</text>
</g>
<!-- portredirect::app_data::ServerAppData -->
<g id="node9" class="node">
<title>portredirect::app_data::ServerAppData</title>
<polygon fill="#81c169" stroke="black" points="483.53,-137.1 483.53,-175.6 721.53,-175.6 721.53,-137.1 483.53,-137.1"/>
<text text-anchor="middle" x="602.53" y="-162.1" font-family="monospace" font-size="10.00">external struct</text>
<polyline fill="none" stroke="black" points="483.53,-156.35 721.53,-156.35"/>
<text text-anchor="middle" x="602.53" y="-142.85" font-family="monospace" font-size="10.00">portredirect::app_data::ServerAppData</text>
</g>
<!-- portredirect::quic::server::ServerConfig -->
<g id="node10" class="node">
<title>portredirect::quic::server::ServerConfig</title>
<polygon fill="#81c169" stroke="black" points="754.01,-55.74 754.01,-94.24 1004.01,-94.24 1004.01,-55.74 754.01,-55.74"/>
<text text-anchor="middle" x="879.01" y="-80.74" font-family="monospace" font-size="10.00">external struct</text>
<polyline fill="none" stroke="black" points="754.01,-74.99 1004.01,-74.99"/>
<text text-anchor="middle" x="879.01" y="-61.49" font-family="monospace" font-size="10.00">portredirect::quic::server::ServerConfig</text>
</g>
<!-- portredirect_server -->
<g id="node11" class="node">
<title>portredirect_server</title>
<polygon fill="#5397c8" stroke="black" points="569.66,-554.81 569.66,-593.31 699.66,-593.31 699.66,-554.81 569.66,-554.81"/>
<text text-anchor="middle" x="634.66" y="-579.81" font-family="monospace" font-size="10.00">crate</text>
<polyline fill="none" stroke="black" points="569.66,-574.06 699.66,-574.06"/>
<text text-anchor="middle" x="634.66" y="-560.56" font-family="monospace" font-size="10.00">portredirect_server</text>
</g>
<!-- portredirect_server&#45;&gt;anyhow::Error -->
<g id="edge1" class="edge">
<title>portredirect_server&#45;&gt;anyhow::Error</title>
<path fill="none" stroke="#7f7f7f" stroke-dasharray="5,2" d="M569.38,-562.25C458.72,-542.23 235.59,-501.87 125.36,-481.93"/>
<polygon fill="#7f7f7f" stroke="#7f7f7f" points="126.05,-478.5 115.59,-480.16 124.8,-485.39 126.05,-478.5"/>
<text text-anchor="middle" x="335.37" y="-523.84" font-family="monospace" font-size="10.00">uses</text>
</g>
<!-- portredirect_server&#45;&gt;anyhow::Result -->
<g id="edge2" class="edge">
<title>portredirect_server&#45;&gt;anyhow::Result</title>
<path fill="none" stroke="#7f7f7f" stroke-dasharray="5,2" d="M700,-568.75C806.77,-560.08 1017.18,-542.99 1121.49,-534.52"/>
<polygon fill="#7f7f7f" stroke="#7f7f7f" points="1121.57,-538.03 1131.25,-533.73 1121,-531.05 1121.57,-538.03"/>
<text text-anchor="middle" x="898.74" y="-553.39" font-family="monospace" font-size="10.00">uses</text>
</g>
<!-- portredirect_server&#45;&gt;bool -->
<g id="edge3" class="edge">
<title>portredirect_server&#45;&gt;bool</title>
<path fill="none" stroke="#7f7f7f" stroke-dasharray="5,2" d="M630.89,-554.33C615.08,-471.49 553.96,-151.4 534.68,-50.44"/>
<polygon fill="#7f7f7f" stroke="#7f7f7f" points="538.14,-49.89 532.82,-40.73 531.26,-51.21 538.14,-49.89"/>
<text text-anchor="middle" x="570.79" y="-304.13" font-family="monospace" font-size="10.00">uses</text>
</g>
<!-- portredirect_server&#45;&gt;i32 -->
<g id="edge4" class="edge">
<title>portredirect_server&#45;&gt;i32</title>
<path fill="none" stroke="#7f7f7f" stroke-dasharray="5,2" d="M624.33,-593.7C583.8,-670.79 435.41,-952.99 386.77,-1045.48"/>
<polygon fill="#7f7f7f" stroke="#7f7f7f" points="383.74,-1043.73 382.18,-1054.21 389.93,-1046.99 383.74,-1043.73"/>
<text text-anchor="middle" x="493.55" y="-821.34" font-family="monospace" font-size="10.00">uses</text>
</g>
<!-- portredirect_server&#45;&gt;log::Level -->
<g id="edge5" class="edge">
<title>portredirect_server&#45;&gt;log::Level</title>
<path fill="none" stroke="#7f7f7f" stroke-dasharray="5,2" d="M700.06,-561.88C773.32,-548.24 891,-526.33 961.43,-513.22"/>
<polygon fill="#7f7f7f" stroke="#7f7f7f" points="962.06,-516.66 971.25,-511.39 960.78,-509.78 962.06,-516.66"/>
<text text-anchor="middle" x="818.74" y="-539.3" font-family="monospace" font-size="10.00">uses</text>
</g>
<!-- portredirect_server&#45;&gt;log::LevelFilter -->
<g id="edge6" class="edge">
<title>portredirect_server&#45;&gt;log::LevelFilter</title>
<path fill="none" stroke="#7f7f7f" stroke-dasharray="5,2" d="M569.31,-575.63C470.98,-577.99 285.89,-582.44 186.27,-584.84"/>
<polygon fill="#7f7f7f" stroke="#7f7f7f" points="186.28,-581.34 176.36,-585.08 186.45,-588.33 186.28,-581.34"/>
<text text-anchor="middle" x="365.79" y="-581.98" font-family="monospace" font-size="10.00">uses</text>
</g>
<!-- portredirect_server&#45;&gt;log::Metadata -->
<g id="edge7" class="edge">
<title>portredirect_server&#45;&gt;log::Metadata</title>
<path fill="none" stroke="#7f7f7f" stroke-dasharray="5,2" d="M608.57,-554.44C530.4,-495.65 298.1,-320.94 209.1,-254.01"/>
<polygon fill="#7f7f7f" stroke="#7f7f7f" points="211.26,-251.26 201.16,-248.04 207.05,-256.85 211.26,-251.26"/>
<text text-anchor="middle" x="396.83" y="-405.97" font-family="monospace" font-size="10.00">uses</text>
</g>
<!-- portredirect_server&#45;&gt;log::MetadataBuilder -->
<g id="edge8" class="edge">
<title>portredirect_server&#45;&gt;log::MetadataBuilder</title>
<path fill="none" stroke="#7f7f7f" stroke-dasharray="5,2" d="M663.13,-554.43C739.6,-501.69 949.55,-356.9 1035.86,-297.38"/>
<polygon fill="#7f7f7f" stroke="#7f7f7f" points="1037.79,-300.3 1044.03,-291.75 1033.81,-294.54 1037.79,-300.3"/>
<text text-anchor="middle" x="837.5" y="-427.65" font-family="monospace" font-size="10.00">uses</text>
</g>
<!-- portredirect_server&#45;&gt;portredirect::app_data::ServerAppData -->
<g id="edge9" class="edge">
<title>portredirect_server&#45;&gt;portredirect::app_data::ServerAppData</title>
<path fill="none" stroke="#7f7f7f" stroke-dasharray="5,2" d="M633.15,-554.47C628.02,-487.74 611.18,-268.86 604.91,-187.32"/>
<polygon fill="#7f7f7f" stroke="#7f7f7f" points="608.41,-187.1 604.15,-177.4 601.43,-187.64 608.41,-187.1"/>
<text text-anchor="middle" x="607.03" y="-372.65" font-family="monospace" font-size="10.00">uses</text>
</g>
<!-- portredirect_server&#45;&gt;portredirect::quic::server::ServerConfig -->
<g id="edge10" class="edge">
<title>portredirect_server&#45;&gt;portredirect::quic::server::ServerConfig</title>
<path fill="none" stroke="#7f7f7f" stroke-dasharray="5,2" d="M644.24,-554.5C681.8,-477.79 819.17,-197.22 864.44,-104.77"/>
<polygon fill="#7f7f7f" stroke="#7f7f7f" points="867.45,-106.57 868.7,-96.05 861.16,-103.49 867.45,-106.57"/>
<text text-anchor="middle" x="742.34" y="-320.13" font-family="monospace" font-size="10.00">uses</text>
</g>
<!-- portredirect_server::Args -->
<g id="node12" class="node">
<title>portredirect_server::Args</title>
<polygon fill="#f8c04c" stroke="black" points="332.53,-535.31 332.53,-573.81 498.53,-573.81 498.53,-535.31 332.53,-535.31"/>
<text text-anchor="middle" x="415.53" y="-560.31" font-family="monospace" font-size="10.00">pub(crate) struct</text>
<polyline fill="none" stroke="black" points="332.53,-554.56 498.53,-554.56"/>
<text text-anchor="middle" x="415.53" y="-541.06" font-family="monospace" font-size="10.00">portredirect_server::Args</text>
</g>
<!-- portredirect_server&#45;&gt;portredirect_server::Args -->
<g id="edge11" class="edge">
<title>portredirect_server&#45;&gt;portredirect_server::Args</title>
<path fill="none" stroke="#000000" d="M569.21,-568.24C550.68,-566.59 530.12,-564.76 510.23,-562.99"/>
<polygon fill="#000000" stroke="#000000" points="510.72,-559.52 500.45,-562.12 510.1,-566.49 510.72,-559.52"/>
<text text-anchor="middle" x="527.72" y="-567.36" font-family="monospace" font-size="10.00">owns</text>
</g>
<!-- rustls::crypto::CryptoProvider -->
<g id="node13" class="node">
<title>rustls::crypto::CryptoProvider</title>
<polygon fill="#81c169" stroke="black" points="1073.07,-646.8 1073.07,-685.3 1269.07,-685.3 1269.07,-646.8 1073.07,-646.8"/>
<text text-anchor="middle" x="1171.07" y="-671.8" font-family="monospace" font-size="10.00">external struct</text>
<polyline fill="none" stroke="black" points="1073.07,-666.05 1269.07,-666.05"/>
<text text-anchor="middle" x="1171.07" y="-652.55" font-family="monospace" font-size="10.00">rustls::crypto::CryptoProvider</text>
</g>
<!-- portredirect_server&#45;&gt;rustls::crypto::CryptoProvider -->
<g id="edge12" class="edge">
<title>portredirect_server&#45;&gt;rustls::crypto::CryptoProvider</title>
<path fill="none" stroke="#7f7f7f" stroke-dasharray="5,2" d="M699.9,-585.25C789.7,-600.65 952.6,-628.59 1061.32,-647.23"/>
<polygon fill="#7f7f7f" stroke="#7f7f7f" points="1060.72,-650.68 1071.17,-648.92 1061.9,-643.78 1060.72,-650.68"/>
<text text-anchor="middle" x="892.61" y="-606.74" font-family="monospace" font-size="10.00">uses</text>
</g>
<!-- secrecy::SecretBox -->
<g id="node14" class="node">
<title>secrecy::SecretBox</title>
<polygon fill="#81c169" stroke="black" points="778.53,-615.25 778.53,-653.75 902.53,-653.75 902.53,-615.25 778.53,-615.25"/>
<text text-anchor="middle" x="840.53" y="-640.25" font-family="monospace" font-size="10.00">external struct</text>
<polyline fill="none" stroke="black" points="778.53,-634.5 902.53,-634.5"/>
<text text-anchor="middle" x="840.53" y="-621" font-family="monospace" font-size="10.00">secrecy::SecretBox</text>
</g>
<!-- portredirect_server&#45;&gt;secrecy::SecretBox -->
<g id="edge13" class="edge">
<title>portredirect_server&#45;&gt;secrecy::SecretBox</title>
<path fill="none" stroke="#7f7f7f" stroke-dasharray="5,2" d="M700.08,-593.27C721.43,-599.53 745.28,-606.54 767.18,-612.96"/>
<polygon fill="#7f7f7f" stroke="#7f7f7f" points="766.05,-616.28 776.64,-615.74 768.03,-609.56 766.05,-616.28"/>
<text text-anchor="middle" x="721.63" y="-604.86" font-family="monospace" font-size="10.00">uses</text>
</g>
<!-- secrecy::SecretString -->
<g id="node15" class="node">
<title>secrecy::SecretString</title>
<polygon fill="#81c169" stroke="black" points="627.41,-1123.14 627.41,-1161.64 769.41,-1161.64 769.41,-1123.14 627.41,-1123.14"/>
<text text-anchor="middle" x="698.41" y="-1148.14" font-family="monospace" font-size="10.00">external type</text>
<polyline fill="none" stroke="black" points="627.41,-1142.39 769.41,-1142.39"/>
<text text-anchor="middle" x="698.41" y="-1128.89" font-family="monospace" font-size="10.00">secrecy::SecretString</text>
</g>
<!-- portredirect_server&#45;&gt;secrecy::SecretString -->
<g id="edge14" class="edge">
<title>portredirect_server&#45;&gt;secrecy::SecretString</title>
<path fill="none" stroke="#7f7f7f" stroke-dasharray="5,2" d="M636.85,-593.62C646.28,-677.65 683.38,-1008.34 694.95,-1111.49"/>
<polygon fill="#7f7f7f" stroke="#7f7f7f" points="691.47,-1111.86 696.06,-1121.41 698.42,-1111.08 691.47,-1111.86"/>
<text text-anchor="middle" x="653.9" y="-854.31" font-family="monospace" font-size="10.00">uses</text>
</g>
<!-- str -->
<g id="node16" class="node">
<title>str</title>
<polygon fill="#81c169" stroke="black" points="729.7,-182.45 729.7,-220.95 841.7,-220.95 841.7,-182.45 729.7,-182.45"/>
<text text-anchor="middle" x="785.7" y="-207.45" font-family="monospace" font-size="10.00">external builtin</text>
<polyline fill="none" stroke="black" points="729.7,-201.7 841.7,-201.7"/>
<text text-anchor="middle" x="785.7" y="-188.2" font-family="monospace" font-size="10.00">str</text>
</g>
<!-- portredirect_server&#45;&gt;str -->
<g id="edge15" class="edge">
<title>portredirect_server&#45;&gt;str</title>
<path fill="none" stroke="#7f7f7f" stroke-dasharray="5,2" d="M642.57,-554.57C667.39,-493.36 743.89,-304.77 773.66,-231.37"/>
<polygon fill="#7f7f7f" stroke="#7f7f7f" points="776.78,-232.99 777.3,-222.41 770.29,-230.36 776.78,-232.99"/>
<text text-anchor="middle" x="696.12" y="-394.72" font-family="monospace" font-size="10.00">uses</text>
</g>
<!-- tokio::time::sleep::Sleep -->
<g id="node17" class="node">
<title>tokio::time::sleep::Sleep</title>
<polygon fill="#81c169" stroke="black" points="917.75,-143.72 917.75,-182.22 1083.75,-182.22 1083.75,-143.72 917.75,-143.72"/>
<text text-anchor="middle" x="1000.75" y="-168.72" font-family="monospace" font-size="10.00">external struct</text>
<polyline fill="none" stroke="black" points="917.75,-162.97 1083.75,-162.97"/>
<text text-anchor="middle" x="1000.75" y="-149.47" font-family="monospace" font-size="10.00">tokio::time::sleep::Sleep</text>
</g>
<!-- portredirect_server&#45;&gt;tokio::time::sleep::Sleep -->
<g id="edge16" class="edge">
<title>portredirect_server&#45;&gt;tokio::time::sleep::Sleep</title>
<path fill="none" stroke="#7f7f7f" stroke-dasharray="5,2" d="M652.07,-554.51C711.45,-487.83 906.18,-269.16 975.76,-191.03"/>
<polygon fill="#7f7f7f" stroke="#7f7f7f" points="978.19,-193.57 982.22,-183.77 972.96,-188.91 978.19,-193.57"/>
<text text-anchor="middle" x="801.92" y="-374.52" font-family="monospace" font-size="10.00">uses</text>
</g>
<!-- tracing::instrument -->
<g id="node18" class="node">
<title>tracing::instrument</title>
<polygon fill="#81c169" stroke="black" points="113.69,-931.99 113.69,-970.49 243.69,-970.49 243.69,-931.99 113.69,-931.99"/>
<text text-anchor="middle" x="178.69" y="-956.99" font-family="monospace" font-size="10.00">external mod</text>
<polyline fill="none" stroke="black" points="113.69,-951.24 243.69,-951.24"/>
<text text-anchor="middle" x="178.69" y="-937.74" font-family="monospace" font-size="10.00">tracing::instrument</text>
</g>
<!-- portredirect_server&#45;&gt;tracing::instrument -->
<g id="edge17" class="edge">
<title>portredirect_server&#45;&gt;tracing::instrument</title>
<path fill="none" stroke="#7f7f7f" stroke-dasharray="5,2" d="M610.79,-593.81C534.69,-656.76 297.74,-852.76 210.96,-924.55"/>
<polygon fill="#7f7f7f" stroke="#7f7f7f" points="208.97,-921.66 203.49,-930.73 213.43,-927.05 208.97,-921.66"/>
<text text-anchor="middle" x="398.87" y="-760.93" font-family="monospace" font-size="10.00">uses</text>
</g>
<!-- tracing::span -->
<g id="node19" class="node">
<title>tracing::span</title>
<polygon fill="#81c169" stroke="black" points="15.57,-687.5 15.57,-726 109.57,-726 109.57,-687.5 15.57,-687.5"/>
<text text-anchor="middle" x="62.57" y="-712.5" font-family="monospace" font-size="10.00">external mod</text>
<polyline fill="none" stroke="black" points="15.57,-706.75 109.57,-706.75"/>
<text text-anchor="middle" x="62.57" y="-693.25" font-family="monospace" font-size="10.00">tracing::span</text>
</g>
<!-- portredirect_server&#45;&gt;tracing::span -->
<g id="edge18" class="edge">
<title>portredirect_server&#45;&gt;tracing::span</title>
<path fill="none" stroke="#7f7f7f" stroke-dasharray="5,2" d="M569.31,-589.22C456.76,-615.32 228.08,-668.36 120.71,-693.26"/>
<polygon fill="#7f7f7f" stroke="#7f7f7f" points="120.2,-689.79 111.25,-695.46 121.78,-696.61 120.2,-689.79"/>
<text text-anchor="middle" x="333.01" y="-642.99" font-family="monospace" font-size="10.00">uses</text>
</g>
<!-- tracing::span::EnteredSpan -->
<g id="node20" class="node">
<title>tracing::span::EnteredSpan</title>
<polygon fill="#81c169" stroke="black" points="69.3,-792.11 69.3,-830.61 241.3,-830.61 241.3,-792.11 69.3,-792.11"/>
<text text-anchor="middle" x="155.3" y="-817.11" font-family="monospace" font-size="10.00">external struct</text>
<polyline fill="none" stroke="black" points="69.3,-811.36 241.3,-811.36"/>
<text text-anchor="middle" x="155.3" y="-797.86" font-family="monospace" font-size="10.00">tracing::span::EnteredSpan</text>
</g>
<!-- portredirect_server&#45;&gt;tracing::span::EnteredSpan -->
<g id="edge19" class="edge">
<title>portredirect_server&#45;&gt;tracing::span::EnteredSpan</title>
<path fill="none" stroke="#7f7f7f" stroke-dasharray="5,2" d="M595.02,-593.68C508.11,-636.71 300.9,-739.28 205.25,-786.63"/>
<polygon fill="#7f7f7f" stroke="#7f7f7f" points="203.74,-783.47 196.33,-791.04 206.85,-789.74 203.74,-783.47"/>
<text text-anchor="middle" x="388.14" y="-691.91" font-family="monospace" font-size="10.00">uses</text>
</g>
<!-- tracing::span::Span -->
<g id="node21" class="node">
<title>tracing::span::Span</title>
<polygon fill="#81c169" stroke="black" points="269.64,-346.68 269.64,-385.18 399.64,-385.18 399.64,-346.68 269.64,-346.68"/>
<text text-anchor="middle" x="334.64" y="-371.68" font-family="monospace" font-size="10.00">external struct</text>
<polyline fill="none" stroke="black" points="269.64,-365.93 399.64,-365.93"/>
<text text-anchor="middle" x="334.64" y="-352.43" font-family="monospace" font-size="10.00">tracing::span::Span</text>
</g>
<!-- portredirect_server&#45;&gt;tracing::span::Span -->
<g id="edge20" class="edge">
<title>portredirect_server&#45;&gt;tracing::span::Span</title>
<path fill="none" stroke="#7f7f7f" stroke-dasharray="5,2" d="M606.44,-554.48C552.16,-516.83 433.22,-434.32 372.28,-392.04"/>
<polygon fill="#7f7f7f" stroke="#7f7f7f" points="374.47,-389.3 364.25,-386.47 370.48,-395.05 374.47,-389.3"/>
<text text-anchor="middle" x="477.36" y="-475.01" font-family="monospace" font-size="10.00">uses</text>
</g>
<!-- tracing_core::callsite::DefaultCallsite -->
<g id="node22" class="node">
<title>tracing_core::callsite::DefaultCallsite</title>
<polygon fill="#81c169" stroke="black" points="0,-336.93 0,-375.43 250,-375.43 250,-336.93 0,-336.93"/>
<text text-anchor="middle" x="125" y="-361.93" font-family="monospace" font-size="10.00">external struct</text>
<polyline fill="none" stroke="black" points="0,-356.18 250,-356.18"/>
<text text-anchor="middle" x="125" y="-342.68" font-family="monospace" font-size="10.00">tracing_core::callsite::DefaultCallsite</text>
</g>
<!-- portredirect_server&#45;&gt;tracing_core::callsite::DefaultCallsite -->
<g id="edge21" class="edge">
<title>portredirect_server&#45;&gt;tracing_core::callsite::DefaultCallsite</title>
<path fill="none" stroke="#7f7f7f" stroke-dasharray="5,2" d="M588.53,-554.34C494.93,-514.33 282.99,-423.72 181.39,-380.28"/>
<polygon fill="#7f7f7f" stroke="#7f7f7f" points="182.99,-377.16 172.41,-376.45 180.23,-383.6 182.99,-377.16"/>
<text text-anchor="middle" x="372.96" y="-469.06" font-family="monospace" font-size="10.00">uses</text>
</g>
<!-- tracing_core::field::DisplayValue -->
<g id="node23" class="node">
<title>tracing_core::field::DisplayValue</title>
<polygon fill="#81c169" stroke="black" points="774.53,-1056.34 774.53,-1094.84 982.53,-1094.84 982.53,-1056.34 774.53,-1056.34"/>
<text text-anchor="middle" x="878.53" y="-1081.34" font-family="monospace" font-size="10.00">external struct</text>
<polyline fill="none" stroke="black" points="774.53,-1075.59 982.53,-1075.59"/>
<text text-anchor="middle" x="878.53" y="-1062.09" font-family="monospace" font-size="10.00">tracing_core::field::DisplayValue</text>
</g>
<!-- portredirect_server&#45;&gt;tracing_core::field::DisplayValue -->
<g id="edge22" class="edge">
<title>portredirect_server&#45;&gt;tracing_core::field::DisplayValue</title>
<path fill="none" stroke="#7f7f7f" stroke-dasharray="5,2" d="M644.22,-593.72C681.75,-670.89 819.11,-953.39 864.14,-1045.98"/>
<polygon fill="#7f7f7f" stroke="#7f7f7f" points="860.86,-1047.24 868.38,-1054.7 867.15,-1044.18 860.86,-1047.24"/>
<text text-anchor="middle" x="742.18" y="-810.35" font-family="monospace" font-size="10.00">uses</text>
</g>
<!-- tracing_core::field::Field -->
<g id="node24" class="node">
<title>tracing_core::field::Field</title>
<polygon fill="#81c169" stroke="black" points="917.23,-983.57 917.23,-1022.07 1083.23,-1022.07 1083.23,-983.57 917.23,-983.57"/>
<text text-anchor="middle" x="1000.23" y="-1008.57" font-family="monospace" font-size="10.00">external struct</text>
<polyline fill="none" stroke="black" points="917.23,-1002.82 1083.23,-1002.82"/>
<text text-anchor="middle" x="1000.23" y="-989.32" font-family="monospace" font-size="10.00">tracing_core::field::Field</text>
</g>
<!-- portredirect_server&#45;&gt;tracing_core::field::Field -->
<g id="edge23" class="edge">
<title>portredirect_server&#45;&gt;tracing_core::field::Field</title>
<path fill="none" stroke="#7f7f7f" stroke-dasharray="5,2" d="M651.32,-593.6C709.96,-662.37 907.02,-893.5 976.07,-974.49"/>
<polygon fill="#7f7f7f" stroke="#7f7f7f" points="973.34,-976.68 982.49,-982.02 978.67,-972.14 973.34,-976.68"/>
<text text-anchor="middle" x="801.7" y="-785.8" font-family="monospace" font-size="10.00">uses</text>
</g>
<!-- tracing_core::field::FieldSet -->
<g id="node25" class="node">
<title>tracing_core::field::FieldSet</title>
<polygon fill="#81c169" stroke="black" points="435.3,-1085.31 435.3,-1123.81 619.3,-1123.81 619.3,-1085.31 435.3,-1085.31"/>
<text text-anchor="middle" x="527.3" y="-1110.31" font-family="monospace" font-size="10.00">external struct</text>
<polyline fill="none" stroke="black" points="435.3,-1104.56 619.3,-1104.56"/>
<text text-anchor="middle" x="527.3" y="-1091.06" font-family="monospace" font-size="10.00">tracing_core::field::FieldSet</text>
</g>
<!-- portredirect_server&#45;&gt;tracing_core::field::FieldSet -->
<g id="edge24" class="edge">
<title>portredirect_server&#45;&gt;tracing_core::field::FieldSet</title>
<path fill="none" stroke="#7f7f7f" stroke-dasharray="5,2" d="M630.71,-593.57C614.55,-673.42 553.37,-975.74 533.55,-1073.71"/>
<polygon fill="#7f7f7f" stroke="#7f7f7f" points="530.14,-1072.89 531.59,-1083.39 537,-1074.28 530.14,-1072.89"/>
<text text-anchor="middle" x="570.13" y="-835.39" font-family="monospace" font-size="10.00">uses</text>
</g>
<!-- tracing_core::field::Iter -->
<g id="node26" class="node">
<title>tracing_core::field::Iter</title>
<polygon fill="#81c169" stroke="black" points="634.16,-7.49 634.16,-45.99 794.16,-45.99 794.16,-7.49 634.16,-7.49"/>
<text text-anchor="middle" x="714.16" y="-32.49" font-family="monospace" font-size="10.00">external struct</text>
<polyline fill="none" stroke="black" points="634.16,-26.74 794.16,-26.74"/>
<text text-anchor="middle" x="714.16" y="-13.24" font-family="monospace" font-size="10.00">tracing_core::field::Iter</text>
</g>
<!-- portredirect_server&#45;&gt;tracing_core::field::Iter -->
<g id="edge25" class="edge">
<title>portredirect_server&#45;&gt;tracing_core::field::Iter</title>
<path fill="none" stroke="#7f7f7f" stroke-dasharray="5,2" d="M637.49,-554.58C649.36,-472.88 695.17,-157.43 709.71,-57.37"/>
<polygon fill="#7f7f7f" stroke="#7f7f7f" points="713.13,-58.17 711.1,-47.77 706.2,-57.16 713.13,-58.17"/>
<text text-anchor="middle" x="661.6" y="-307.73" font-family="monospace" font-size="10.00">uses</text>
</g>
<!-- tracing_core::field::ValueSet -->
<g id="node27" class="node">
<title>tracing_core::field::ValueSet</title>
<polygon fill="#81c169" stroke="black" points="1047.7,-768.48 1047.7,-806.98 1231.7,-806.98 1231.7,-768.48 1047.7,-768.48"/>
<text text-anchor="middle" x="1139.7" y="-793.48" font-family="monospace" font-size="10.00">external struct</text>
<polyline fill="none" stroke="black" points="1047.7,-787.73 1231.7,-787.73"/>
<text text-anchor="middle" x="1139.7" y="-774.23" font-family="monospace" font-size="10.00">tracing_core::field::ValueSet</text>
</g>
<!-- portredirect_server&#45;&gt;tracing_core::field::ValueSet -->
<g id="edge26" class="edge">
<title>portredirect_server&#45;&gt;tracing_core::field::ValueSet</title>
<path fill="none" stroke="#7f7f7f" stroke-dasharray="5,2" d="M681.27,-593.78C774.1,-633.05 981.8,-720.93 1082.62,-763.58"/>
<polygon fill="#7f7f7f" stroke="#7f7f7f" points="1081.23,-766.8 1091.81,-767.47 1083.96,-760.35 1081.23,-766.8"/>
<text text-anchor="middle" x="869.94" y="-680.43" font-family="monospace" font-size="10.00">uses</text>
</g>
<!-- tracing_core::metadata::Level -->
<g id="node28" class="node">
<title>tracing_core::metadata::Level</title>
<polygon fill="#81c169" stroke="black" points="253.12,-724.21 253.12,-762.71 443.12,-762.71 443.12,-724.21 253.12,-724.21"/>
<text text-anchor="middle" x="348.12" y="-749.21" font-family="monospace" font-size="10.00">external struct</text>
<polyline fill="none" stroke="black" points="253.12,-743.46 443.12,-743.46"/>
<text text-anchor="middle" x="348.12" y="-729.96" font-family="monospace" font-size="10.00">tracing_core::metadata::Level</text>
</g>
<!-- portredirect_server&#45;&gt;tracing_core::metadata::Level -->
<g id="edge27" class="edge">
<title>portredirect_server&#45;&gt;tracing_core::metadata::Level</title>
<path fill="none" stroke="#7f7f7f" stroke-dasharray="5,2" d="M601.51,-593.66C549.54,-624.39 448.87,-683.9 391.3,-717.93"/>
<polygon fill="#7f7f7f" stroke="#7f7f7f" points="389.55,-714.9 382.72,-723 393.11,-720.93 389.55,-714.9"/>
<text text-anchor="middle" x="484.41" y="-657.54" font-family="monospace" font-size="10.00">uses</text>
</g>
<!-- tracing_core::metadata::LevelFilter -->
<g id="node29" class="node">
<title>tracing_core::metadata::LevelFilter</title>
<polygon fill="#81c169" stroke="black" points="249.32,-184.12 249.32,-222.62 475.32,-222.62 475.32,-184.12 249.32,-184.12"/>
<text text-anchor="middle" x="362.32" y="-209.12" font-family="monospace" font-size="10.00">external struct</text>
<polyline fill="none" stroke="black" points="249.32,-203.37 475.32,-203.37"/>
<text text-anchor="middle" x="362.32" y="-189.87" font-family="monospace" font-size="10.00">tracing_core::metadata::LevelFilter</text>
</g>
<!-- portredirect_server&#45;&gt;tracing_core::metadata::LevelFilter -->
<g id="edge28" class="edge">
<title>portredirect_server&#45;&gt;tracing_core::metadata::LevelFilter</title>
<path fill="none" stroke="#7f7f7f" stroke-dasharray="5,2" d="M620.21,-554.39C575.06,-492.94 436.49,-304.33 383.36,-232.01"/>
<polygon fill="#7f7f7f" stroke="#7f7f7f" points="386.37,-230.2 377.63,-224.21 380.73,-234.34 386.37,-230.2"/>
<text text-anchor="middle" x="489.78" y="-394.95" font-family="monospace" font-size="10.00">uses</text>
</g>
<!-- tracing_core::metadata::Metadata -->
<g id="node30" class="node">
<title>tracing_core::metadata::Metadata</title>
<polygon fill="#81c169" stroke="black" points="1055.44,-358.14 1055.44,-396.64 1263.44,-396.64 1263.44,-358.14 1055.44,-358.14"/>
<text text-anchor="middle" x="1159.44" y="-383.14" font-family="monospace" font-size="10.00">external struct</text>
<polyline fill="none" stroke="black" points="1055.44,-377.39 1263.44,-377.39"/>
<text text-anchor="middle" x="1159.44" y="-363.89" font-family="monospace" font-size="10.00">tracing_core::metadata::Metadata</text>
</g>
<!-- portredirect_server&#45;&gt;tracing_core::metadata::Metadata -->
<g id="edge29" class="edge">
<title>portredirect_server&#45;&gt;tracing_core::metadata::Metadata</title>
<path fill="none" stroke="#7f7f7f" stroke-dasharray="5,2" d="M686.9,-554.48C783.92,-518.12 991.59,-440.29 1096.31,-401.05"/>
<polygon fill="#7f7f7f" stroke="#7f7f7f" points="1097.47,-404.35 1105.61,-397.56 1095.02,-397.79 1097.47,-404.35"/>
<text text-anchor="middle" x="879.6" y="-479.52" font-family="monospace" font-size="10.00">uses</text>
</g>
<!-- tracing_core::subscriber::Interest -->
<g id="node31" class="node">
<title>tracing_core::subscriber::Interest</title>
<polygon fill="#81c169" stroke="black" points="631.3,-989.16 631.3,-1027.66 851.3,-1027.66 851.3,-989.16 631.3,-989.16"/>
<text text-anchor="middle" x="741.3" y="-1014.16" font-family="monospace" font-size="10.00">external struct</text>
<polyline fill="none" stroke="black" points="631.3,-1008.41 851.3,-1008.41"/>
<text text-anchor="middle" x="741.3" y="-994.91" font-family="monospace" font-size="10.00">tracing_core::subscriber::Interest</text>
</g>
<!-- portredirect_server&#45;&gt;tracing_core::subscriber::Interest -->
<g id="edge30" class="edge">
<title>portredirect_server&#45;&gt;tracing_core::subscriber::Interest</title>
<path fill="none" stroke="#7f7f7f" stroke-dasharray="5,2" d="M639.45,-593.57C656.35,-662.39 713.27,-894.23 733.82,-977.94"/>
<polygon fill="#7f7f7f" stroke="#7f7f7f" points="730.38,-978.61 736.17,-987.49 737.18,-976.94 730.38,-978.61"/>
<text text-anchor="middle" x="674.64" y="-787.5" font-family="monospace" font-size="10.00">uses</text>
</g>
<!-- tracing_subscriber::fmt::SubscriberBuilder -->
<g id="node32" class="node">
<title>tracing_subscriber::fmt::SubscriberBuilder</title>
<polygon fill="#81c169" stroke="black" points="741.4,-806.56 741.4,-845.06 1009.4,-845.06 1009.4,-806.56 741.4,-806.56"/>
<text text-anchor="middle" x="875.4" y="-831.56" font-family="monospace" font-size="10.00">external struct</text>
<polyline fill="none" stroke="black" points="741.4,-825.81 1009.4,-825.81"/>
<text text-anchor="middle" x="875.4" y="-812.31" font-family="monospace" font-size="10.00">tracing_subscriber::fmt::SubscriberBuilder</text>
</g>
<!-- portredirect_server&#45;&gt;tracing_subscriber::fmt::SubscriberBuilder -->
<g id="edge31" class="edge">
<title>portredirect_server&#45;&gt;tracing_subscriber::fmt::SubscriberBuilder</title>
<path fill="none" stroke="#7f7f7f" stroke-dasharray="5,2" d="M653.15,-593.4C695.49,-637.68 799.62,-746.57 848.82,-798.02"/>
<polygon fill="#7f7f7f" stroke="#7f7f7f" points="846.02,-800.16 855.46,-804.97 851.08,-795.32 846.02,-800.16"/>
<text text-anchor="middle" x="738.99" y="-697.46" font-family="monospace" font-size="10.00">uses</text>
</g>
<!-- tracing_subscriber::fmt::format::DefaultFields -->
<g id="node33" class="node">
<title>tracing_subscriber::fmt::format::DefaultFields</title>
<polygon fill="#81c169" stroke="black" points="154.09,-81.88 154.09,-120.38 446.09,-120.38 446.09,-81.88 154.09,-81.88"/>
<text text-anchor="middle" x="300.09" y="-106.88" font-family="monospace" font-size="10.00">external struct</text>
<polyline fill="none" stroke="black" points="154.09,-101.13 446.09,-101.13"/>
<text text-anchor="middle" x="300.09" y="-87.63" font-family="monospace" font-size="10.00">tracing_subscriber::fmt::format::DefaultFields</text>
</g>
<!-- portredirect_server&#45;&gt;tracing_subscriber::fmt::format::DefaultFields -->
<g id="edge32" class="edge">
<title>portredirect_server&#45;&gt;tracing_subscriber::fmt::format::DefaultFields</title>
<path fill="none" stroke="#7f7f7f" stroke-dasharray="5,2" d="M620.71,-554.34C568.25,-480.19 382.67,-217.87 320.53,-130.03"/>
<polygon fill="#7f7f7f" stroke="#7f7f7f" points="323.42,-128.05 314.78,-121.91 317.7,-132.09 323.42,-128.05"/>
<text text-anchor="middle" x="458.62" y="-343.94" font-family="monospace" font-size="10.00">uses</text>
</g>
<!-- tracing_subscriber::fmt::format::Format -->
<g id="node34" class="node">
<title>tracing_subscriber::fmt::format::Format</title>
<polygon fill="#81c169" stroke="black" points="251.86,-923.19 251.86,-961.69 501.86,-961.69 501.86,-923.19 251.86,-923.19"/>
<text text-anchor="middle" x="376.86" y="-948.19" font-family="monospace" font-size="10.00">external struct</text>
<polyline fill="none" stroke="black" points="251.86,-942.44 501.86,-942.44"/>
<text text-anchor="middle" x="376.86" y="-928.94" font-family="monospace" font-size="10.00">tracing_subscriber::fmt::format::Format</text>
</g>
<!-- portredirect_server&#45;&gt;tracing_subscriber::fmt::format::Format -->
<g id="edge33" class="edge">
<title>portredirect_server&#45;&gt;tracing_subscriber::fmt::format::Format</title>
<path fill="none" stroke="#7f7f7f" stroke-dasharray="5,2" d="M620.98,-593.61C578.33,-654.55 447.61,-841.35 397.09,-913.54"/>
<polygon fill="#7f7f7f" stroke="#7f7f7f" points="394.24,-911.5 391.38,-921.7 399.98,-915.51 394.24,-911.5"/>
<text text-anchor="middle" x="497.03" y="-755.32" font-family="monospace" font-size="10.00">uses</text>
</g>
<!-- tracing_subscriber::fmt::format::Full -->
<g id="node35" class="node">
<title>tracing_subscriber::fmt::format::Full</title>
<polygon fill="#81c169" stroke="black" points="951.6,-869.74 951.6,-908.24 1189.6,-908.24 1189.6,-869.74 951.6,-869.74"/>
<text text-anchor="middle" x="1070.6" y="-894.74" font-family="monospace" font-size="10.00">external struct</text>
<polyline fill="none" stroke="black" points="951.6,-888.99 1189.6,-888.99"/>
<text text-anchor="middle" x="1070.6" y="-875.49" font-family="monospace" font-size="10.00">tracing_subscriber::fmt::format::Full</text>
</g>
<!-- portredirect_server&#45;&gt;tracing_subscriber::fmt::format::Full -->
<g id="edge34" class="edge">
<title>portredirect_server&#45;&gt;tracing_subscriber::fmt::format::Full</title>
<path fill="none" stroke="#7f7f7f" stroke-dasharray="5,2" d="M661.93,-593.76C737.31,-648.22 948.58,-800.84 1034.03,-862.58"/>
<polygon fill="#7f7f7f" stroke="#7f7f7f" points="1031.95,-865.39 1042.11,-868.41 1036.05,-859.72 1031.95,-865.39"/>
<text text-anchor="middle" x="835.98" y="-729.92" font-family="monospace" font-size="10.00">uses</text>
</g>
<!-- tracing_subscriber::fmt::time::SystemTime -->
<g id="node36" class="node">
<title>tracing_subscriber::fmt::time::SystemTime</title>
<polygon fill="#81c169" stroke="black" points="721.52,-331.77 721.52,-370.27 983.52,-370.27 983.52,-331.77 721.52,-331.77"/>
<text text-anchor="middle" x="852.52" y="-356.77" font-family="monospace" font-size="10.00">external struct</text>
<polyline fill="none" stroke="black" points="721.52,-351.02 983.52,-351.02"/>
<text text-anchor="middle" x="852.52" y="-337.52" font-family="monospace" font-size="10.00">tracing_subscriber::fmt::time::SystemTime</text>
</g>
<!-- portredirect_server&#45;&gt;tracing_subscriber::fmt::time::SystemTime -->
<g id="edge35" class="edge">
<title>portredirect_server&#45;&gt;tracing_subscriber::fmt::time::SystemTime</title>
<path fill="none" stroke="#7f7f7f" stroke-dasharray="5,2" d="M653.61,-554.66C692.4,-514.95 780.94,-424.3 825.64,-378.54"/>
<polygon fill="#7f7f7f" stroke="#7f7f7f" points="827.91,-381.22 832.4,-371.62 822.9,-376.33 827.91,-381.22"/>
<text text-anchor="middle" x="727.63" y="-468.35" font-family="monospace" font-size="10.00">uses</text>
</g>
<!-- usize -->
<g id="node37" class="node">
<title>usize</title>
<polygon fill="#81c169" stroke="black" points="530.89,-870.43 530.89,-908.93 642.89,-908.93 642.89,-870.43 530.89,-870.43"/>
<text text-anchor="middle" x="586.89" y="-895.43" font-family="monospace" font-size="10.00">external builtin</text>
<polyline fill="none" stroke="black" points="530.89,-889.68 642.89,-889.68"/>
<text text-anchor="middle" x="586.89" y="-876.18" font-family="monospace" font-size="10.00">usize</text>
</g>
<!-- portredirect_server&#45;&gt;usize -->
<g id="edge36" class="edge">
<title>portredirect_server&#45;&gt;usize</title>
<path fill="none" stroke="#7f7f7f" stroke-dasharray="5,2" d="M631.67,-593.8C623.59,-647.16 601.28,-794.56 591.54,-858.93"/>
<polygon fill="#7f7f7f" stroke="#7f7f7f" points="588.14,-858.04 590.1,-868.45 595.06,-859.09 588.14,-858.04"/>
<text text-anchor="middle" x="599.61" y="-728.12" font-family="monospace" font-size="10.00">uses</text>
</g>
<!-- portredirect_server::Args&#45;&gt;secrecy::SecretBox -->
<g id="edge37" class="edge">
<title>portredirect_server::Args&#45;&gt;secrecy::SecretBox</title>
<path fill="none" stroke="#7f7f7f" stroke-dasharray="5,2" d="M498.99,-570.26C577.05,-584.94 692.51,-606.66 767.14,-620.69"/>
<polygon fill="#7f7f7f" stroke="#7f7f7f" points="766.33,-624.1 776.81,-622.51 767.63,-617.22 766.33,-624.1"/>
<text text-anchor="middle" x="621.06" y="-597.23" font-family="monospace" font-size="10.00">uses</text>
</g>
</g>
</svg>
